<?xml version="1.0" encoding="utf-8"?>
<!-- Generator: Adobe Illustrator 24.0.0, SVG Export Plug-In . SVG Version: 6.00 Build 0)  -->
<svg version="1.1" id="Layer_1" xmlns="http://www.w3.org/2000/svg" xmlns:xlink="http://www.w3.org/1999/xlink" x="0px" y="0px"
	 viewBox="0 0 438.7 139.3" style="enable-background:new 0 0 438.7 139.3;" xml:space="preserve">
<style type="text/css">
	.st0{fill:#FFFFFF;}
</style>
<g>
	<path class="st0" d="M94.7,59.9v5.7c-4.5-4.7-9.6-7-15.3-7c-6.6,0-12.1,2.4-16.5,7.3c-4.4,4.9-6.6,11-6.6,18.4
		c0,7.5,2.2,13.7,6.6,18.7c4.4,4.9,10,7.3,16.8,7.3c5.4,0,10.4-2.2,15-6.5v5.1h11.4v-49H94.7z M91.5,95.8c-2.6,2.9-6,4.3-10.2,4.3
		c-3.9,0-7.2-1.5-9.8-4.5c-2.5-2.9-3.8-6.8-3.8-11.5c0-4.4,1.3-8.1,3.9-11.1c2.6-2.9,5.9-4.4,9.8-4.4c4.1,0,7.5,1.5,10.1,4.4
		c2.6,3,3.9,6.8,3.9,11.4C95.4,89.1,94.1,92.9,91.5,95.8z"/>
	<rect x="114.4" y="11.4" class="st0" width="11.3" height="97.4"/>
	<rect x="135.2" y="2.8" class="st0" width="11.3" height="106"/>
	<path class="st0" d="M46,65.9c-4.4-4.9-9.9-7.4-16.5-7.4c-5.7,0-10.9,2.3-15.4,7V24.9H2.8v83.9h11.3v-5.1c4.5,4.4,9.5,6.5,15.2,6.5
		c6.7,0,12.3-2.4,16.6-7.3c4.4-4.9,6.6-11.2,6.6-18.7C52.6,76.9,50.4,70.8,46,65.9z M37.1,95.8c-2.6,2.9-5.8,4.4-9.8,4.4
		c-4.2,0-7.5-1.5-10.1-4.4c-2.5-2.8-3.8-6.7-3.8-11.4c0-4.6,1.3-8.4,3.9-11.3c2.6-2.9,6-4.4,10.2-4.4c3.9,0,7.1,1.5,9.7,4.5
		c2.5,3,3.8,6.8,3.8,11.5C41.1,89.2,39.7,92.8,37.1,95.8z"/>
	<path class="st0" d="M360.3,58.5c-2.2,0-4.2,0.4-5.8,1.3c-1.6,0.8-3.5,2.3-5.5,4.5v-4.4h-11.3v49H349V83.5c0-9.3,3.1-14,9.3-14
		c2,0,4.1,0.8,6.3,2.3l5.2-10.4C366.4,59.5,363.3,58.5,360.3,58.5z"/>
	<path class="st0" d="M404.8,90.7c-2.3,3.6-4.4,6.1-6.2,7.4c-1.8,1.3-4.2,2-7,2c-3.6,0-6.6-1.2-8.9-3.5c-2.3-2.4-3.6-5.6-3.9-9.6
		h35.1l0.1-2.7c0-8.1-2.1-14.4-6.2-19c-4.2-4.6-9.9-6.9-17.1-6.9c-7.1,0-12.9,2.4-17.2,7.1c-4.3,4.8-6.4,11.1-6.4,18.8
		c0,7.8,2.2,14.1,6.6,18.8c4.4,4.7,10.3,7,17.6,7c2.5,0,4.9-0.3,7.1-0.8c2.2-0.5,4.2-1.4,6.1-2.5c1.9-1.2,3.6-2.6,5.3-4.4
		c1.6-1.8,3.2-3.9,4.7-6.5L404.8,90.7z M381.1,74c0.7-1.1,1.6-2.1,2.5-2.8c1-0.8,2.1-1.4,3.3-1.8c1.2-0.4,2.5-0.6,3.9-0.6
		c6,0,9.8,3,11.4,9.1h-22.7C379.9,76.4,380.4,75.1,381.1,74z"/>
	<polygon class="st0" points="179.6,88 164.6,59.9 151.5,59.9 173.5,99.8 154.4,135.5 167.3,135.5 206.3,59.9 193.6,59.9 	"/>
	<path class="st0" d="M431.7,98.4c-1.4-1.4-3-2.1-4.9-2.1s-3.6,0.7-4.9,2.1c-1.4,1.4-2.1,3-2.1,4.9c0,2,0.7,3.7,2,5c1.3,1.3,3,2,5,2
		c1.9,0,3.6-0.7,4.9-2c1.4-1.4,2.1-3,2.1-5C433.7,101.4,433.1,99.7,431.7,98.4z"/>
	<path class="st0" d="M260.7,58.5c-6.1,0-10.9,2.4-14.4,7.2c-3.2-4.8-7.6-7.2-13.1-7.2c-2.5,0-4.5,0.4-6.2,1.3
		c-1.5,0.8-3.4,2.3-5.6,4.6v-4.5h-11.3v49h11.3V83.6c0-5.1,0.7-8.9,2.2-11.3c1.5-2.4,3.8-3.6,7-3.6c5,0,7.5,4.4,7.5,13.1v27.1h11.4
		V83.6c0-5.2,0.7-9,2.1-11.3c1.4-2.3,3.7-3.5,6.8-3.5c2.7,0,4.6,1,5.8,3c1.1,1.9,1.7,5.3,1.7,10v27.2h11.4V78.6
		C277.3,65.2,271.8,58.5,260.7,58.5z"/>
	<path class="st0" d="M326.2,66c-5.1-5-11.3-7.5-18.6-7.5c-7.3,0-13.4,2.5-18.5,7.4c-5.1,5-7.6,11-7.6,18.1c0,7.5,2.5,13.7,7.4,18.7
		c5,5,11.1,7.5,18.5,7.5c7.4,0,13.7-2.5,18.8-7.4c5.1-5,7.6-11.1,7.6-18.5C333.7,77.2,331.2,71,326.2,66z M318.2,95.9
		c-2.6,2.8-6.2,4.3-10.6,4.3c-4.4,0-7.9-1.4-10.6-4.3c-2.6-2.8-3.9-6.7-3.9-11.6c0-4.6,1.3-8.3,4-11.2c2.7-2.9,6.2-4.3,10.5-4.3
		c4.4,0,7.9,1.4,10.6,4.3c2.6,2.8,4,6.7,4,11.4C322.2,89.2,320.8,93,318.2,95.9z"/>
</g>
</svg>
